<svg xmlns="http://www.w3.org/2000/svg" xmlns:xlink="http://www.w3.org/1999/xlink" width="500" zoomAndPan="magnify" viewBox="0 0 375 374.999991" height="500" preserveAspectRatio="xMidYMid meet" version="1.0"><defs><clipPath id="d6a2f76515"><path d="M 0 109.722656 L 375 109.722656 L 375 264.972656 L 0 264.972656 Z M 0 109.722656 " clip-rule="nonzero"/></clipPath></defs><g clip-path="url(#d6a2f76515)"><path fill="#2f36fa" d="M 368.640625 238.328125 L 200.929688 238.328125 C 197.421875 238.328125 194.574219 235.484375 194.574219 231.976562 C 194.574219 228.464844 197.421875 225.625 200.929688 225.625 L 323.390625 225.625 C 326.898438 225.625 329.742188 222.777344 329.742188 219.269531 C 329.742188 215.761719 326.898438 212.917969 323.390625 212.917969 L 310.15625 212.917969 C 307.757812 196.136719 297.835938 180.988281 279.460938 177.453125 C 279.945312 174.421875 280.203125 171.316406 280.203125 168.148438 C 280.203125 135.925781 254.082031 109.808594 221.859375 109.808594 C 193.839844 109.808594 170.4375 129.558594 164.8125 155.898438 L 164.808594 155.894531 C 156.394531 151.1875 146.695312 148.507812 136.367188 148.507812 C 113.375 148.507812 93.488281 161.8125 83.984375 181.144531 L 6.363281 181.144531 C 2.851562 181.144531 0.0078125 183.988281 0.0078125 187.5 C 0.0078125 191.007812 2.851562 193.851562 6.363281 193.851562 L 128.820312 193.851562 C 132.332031 193.851562 135.175781 196.695312 135.175781 200.207031 C 135.175781 203.714844 132.332031 206.5625 128.820312 206.5625 L 51.609375 206.5625 C 48.101562 206.5625 45.257812 209.40625 45.257812 212.917969 C 45.257812 216.425781 48.101562 219.269531 51.609375 219.269531 L 79.355469 219.269531 C 85.046875 245.523438 108.410156 265.191406 136.367188 265.191406 L 280.859375 265.191406 C 289.902344 263.554688 297.003906 258.269531 302.015625 251.039062 L 368.640625 251.039062 C 372.148438 251.039062 374.992188 248.191406 374.992188 244.683594 C 374.992188 241.175781 372.148438 238.328125 368.640625 238.328125 " fill-opacity="1" fill-rule="nonzero"/></g></svg>