<svg xmlns="http://www.w3.org/2000/svg" xmlns:xlink="http://www.w3.org/1999/xlink" width="500" zoomAndPan="magnify" viewBox="0 0 375 374.999991" height="500" preserveAspectRatio="xMidYMid meet" version="1.2"><defs/><g id="d1ac3972ae"><rect x="0" width="375" y="0" height="374.999991" style="fill:#ffffff;fill-opacity:1;stroke:none;"/><rect x="0" width="375" y="0" height="374.999991" style="fill:#f6f6f6;fill-opacity:1;stroke:none;"/><g style="fill:#000000;fill-opacity:1;"><g transform="translate(28.778323, 217.124986)"><path style="stroke:none" d="M 5.28125 0 L 5.28125 -57.125 L 12.484375 -57.125 L 12.484375 0 Z M 5.28125 0 "/></g></g><g style="fill:#000000;fill-opacity:1;"><g transform="translate(46.5366, 217.124986)"><path style="stroke:none" d="M 22.875 0.796875 C 19.09375 0.796875 15.679688 -0.0664062 12.640625 -1.796875 C 9.597656 -3.535156 7.195312 -5.894531 5.4375 -8.875 C 3.675781 -11.863281 2.796875 -15.253906 2.796875 -19.046875 C 2.796875 -22.773438 3.660156 -26.128906 5.390625 -29.109375 C 7.128906 -32.097656 9.476562 -34.457031 12.4375 -36.1875 C 15.394531 -37.925781 18.71875 -38.796875 22.40625 -38.796875 C 25.925781 -38.796875 29.03125 -37.992188 31.71875 -36.390625 C 34.414062 -34.796875 36.519531 -32.582031 38.03125 -29.75 C 39.550781 -26.925781 40.3125 -23.726562 40.3125 -20.15625 C 40.3125 -19.625 40.285156 -19.050781 40.234375 -18.4375 C 40.179688 -17.820312 40.078125 -17.113281 39.921875 -16.3125 L 7.84375 -16.3125 L 7.84375 -22.3125 L 36.078125 -22.3125 L 33.4375 -20 C 33.4375 -22.5625 32.984375 -24.734375 32.078125 -26.515625 C 31.171875 -28.304688 29.890625 -29.691406 28.234375 -30.671875 C 26.585938 -31.660156 24.585938 -32.15625 22.234375 -32.15625 C 19.785156 -32.15625 17.625 -31.617188 15.75 -30.546875 C 13.882812 -29.484375 12.445312 -27.992188 11.4375 -26.078125 C 10.425781 -24.160156 9.921875 -21.894531 9.921875 -19.28125 C 9.921875 -16.613281 10.453125 -14.28125 11.515625 -12.28125 C 12.585938 -10.28125 14.109375 -8.734375 16.078125 -7.640625 C 18.054688 -6.546875 20.320312 -6 22.875 -6 C 25.007812 -6 26.96875 -6.367188 28.75 -7.109375 C 30.539062 -7.859375 32.078125 -8.984375 33.359375 -10.484375 L 38 -5.765625 C 36.1875 -3.628906 33.957031 -2 31.3125 -0.875 C 28.675781 0.238281 25.863281 0.796875 22.875 0.796875 Z M 22.875 0.796875 "/></g></g><g style="fill:#000000;fill-opacity:1;"><g transform="translate(89.412436, 217.124986)"><path style="stroke:none" d="M 5.28125 0 L 5.28125 -38 L 12.484375 -38 L 12.484375 0 Z M 30.953125 0 L 30.953125 -22.953125 C 30.953125 -25.785156 30.085938 -28.015625 28.359375 -29.640625 C 26.628906 -31.265625 24.457031 -32.078125 21.84375 -32.078125 C 20.082031 -32.078125 18.507812 -31.703125 17.125 -30.953125 C 15.738281 -30.210938 14.617188 -29.175781 13.765625 -27.84375 C 12.910156 -26.507812 12.484375 -24.910156 12.484375 -23.046875 L 9.515625 -24.484375 C 9.515625 -27.359375 10.140625 -29.863281 11.390625 -32 C 12.648438 -34.132812 14.375 -35.800781 16.5625 -37 C 18.75 -38.195312 21.203125 -38.796875 23.921875 -38.796875 C 26.585938 -38.796875 29 -38.207031 31.15625 -37.03125 C 33.320312 -35.863281 35.03125 -34.210938 36.28125 -32.078125 C 37.53125 -29.941406 38.15625 -27.410156 38.15625 -24.484375 L 38.15625 0 Z M 56.640625 0 L 56.640625 -22.953125 C 56.640625 -25.785156 55.769531 -28.015625 54.03125 -29.640625 C 52.300781 -31.265625 50.15625 -32.078125 47.59375 -32.078125 C 45.832031 -32.078125 44.242188 -31.703125 42.828125 -30.953125 C 41.421875 -30.210938 40.289062 -29.175781 39.4375 -27.84375 C 38.582031 -26.507812 38.15625 -24.910156 38.15625 -23.046875 L 34.078125 -24.484375 C 34.234375 -27.410156 35.019531 -29.925781 36.4375 -32.03125 C 37.851562 -34.144531 39.679688 -35.800781 41.921875 -37 C 44.160156 -38.195312 46.613281 -38.796875 49.28125 -38.796875 C 52.050781 -38.796875 54.53125 -38.207031 56.71875 -37.03125 C 58.90625 -35.863281 60.648438 -34.210938 61.953125 -32.078125 C 63.265625 -29.941406 63.921875 -27.382812 63.921875 -24.40625 L 63.921875 0 Z M 56.640625 0 "/></g></g><g style="fill:#000000;fill-opacity:1;"><g transform="translate(157.805792, 217.124986)"><path style="stroke:none" d="M 25.28125 0.796875 C 22.394531 0.796875 19.789062 0.195312 17.46875 -1 C 15.15625 -2.195312 13.304688 -3.863281 11.921875 -6 C 10.535156 -8.132812 9.757812 -10.5625 9.59375 -13.28125 L 9.59375 -24.71875 C 9.757812 -27.488281 10.546875 -29.925781 11.953125 -32.03125 C 13.367188 -34.144531 15.238281 -35.800781 17.5625 -37 C 19.882812 -38.195312 22.457031 -38.796875 25.28125 -38.796875 C 28.75 -38.796875 31.878906 -37.914062 34.671875 -36.15625 C 37.472656 -34.394531 39.675781 -32.019531 41.28125 -29.03125 C 42.882812 -26.050781 43.6875 -22.691406 43.6875 -18.953125 C 43.6875 -15.222656 42.882812 -11.863281 41.28125 -8.875 C 39.675781 -5.894531 37.472656 -3.535156 34.671875 -1.796875 C 31.878906 -0.0664062 28.75 0.796875 25.28125 0.796875 Z M 5.28125 15.921875 L 5.28125 -38 L 12.484375 -38 L 12.484375 -28 L 11.125 -18.796875 L 12.484375 -9.515625 L 12.484375 15.921875 Z M 24.078125 -6 C 26.484375 -6 28.59375 -6.554688 30.40625 -7.671875 C 32.21875 -8.796875 33.65625 -10.332031 34.71875 -12.28125 C 35.78125 -14.226562 36.3125 -16.484375 36.3125 -19.046875 C 36.3125 -21.546875 35.78125 -23.78125 34.71875 -25.75 C 33.65625 -27.726562 32.21875 -29.265625 30.40625 -30.359375 C 28.59375 -31.453125 26.507812 -32 24.15625 -32 C 21.757812 -32 19.65625 -31.453125 17.84375 -30.359375 C 16.03125 -29.265625 14.613281 -27.726562 13.59375 -25.75 C 12.582031 -23.78125 12.078125 -21.515625 12.078125 -18.953125 C 12.078125 -16.453125 12.570312 -14.226562 13.5625 -12.28125 C 14.550781 -10.332031 15.960938 -8.796875 17.796875 -7.671875 C 19.640625 -6.554688 21.734375 -6 24.078125 -6 Z M 24.078125 -6 "/></g></g><g style="fill:#2f36fa;fill-opacity:1;"><g transform="translate(204.372061, 217.124986)"><path style="stroke:none" d="M 11.59375 0.796875 C 10.101562 0.796875 8.863281 0.28125 7.875 -0.75 C 6.894531 -1.789062 6.40625 -3.035156 6.40625 -4.484375 C 6.40625 -5.972656 6.894531 -7.210938 7.875 -8.203125 C 8.863281 -9.191406 10.101562 -9.6875 11.59375 -9.6875 C 13.09375 -9.6875 14.332031 -9.191406 15.3125 -8.203125 C 16.300781 -7.210938 16.796875 -5.972656 16.796875 -4.484375 C 16.796875 -3.035156 16.300781 -1.789062 15.3125 -0.75 C 14.332031 0.28125 13.09375 0.796875 11.59375 0.796875 Z M 11.59375 0.796875 "/></g></g><g style="fill:#000000;fill-opacity:1;"><g transform="translate(227.575185, 217.124986)"><path style="stroke:none" d="M 5.28125 0 L 5.28125 -38 L 12.484375 -38 L 12.484375 0 Z M 12.484375 -21.6875 L 9.765625 -22.875 C 9.765625 -27.726562 10.882812 -31.59375 13.125 -34.46875 C 15.363281 -37.351562 18.585938 -38.796875 22.796875 -38.796875 C 24.722656 -38.796875 26.457031 -38.460938 28 -37.796875 C 29.539062 -37.128906 30.976562 -36.023438 32.3125 -34.484375 L 27.59375 -29.59375 C 26.800781 -30.445312 25.921875 -31.0625 24.953125 -31.4375 C 23.992188 -31.8125 22.875 -32 21.59375 -32 C 18.925781 -32 16.738281 -31.144531 15.03125 -29.4375 C 13.332031 -27.726562 12.484375 -25.144531 12.484375 -21.6875 Z M 12.484375 -21.6875 "/></g></g><g style="fill:#000000;fill-opacity:1;"><g transform="translate(261.091929, 217.124986)"><path style="stroke:none" d="M 20.640625 0.796875 C 17.492188 0.796875 14.679688 0.09375 12.203125 -1.3125 C 9.722656 -2.726562 7.785156 -4.6875 6.390625 -7.1875 C 5.003906 -9.695312 4.3125 -12.609375 4.3125 -15.921875 L 4.3125 -38 L 11.515625 -38 L 11.515625 -16.234375 C 11.515625 -14.160156 11.875 -12.363281 12.59375 -10.84375 C 13.320312 -9.320312 14.378906 -8.160156 15.765625 -7.359375 C 17.148438 -6.554688 18.773438 -6.15625 20.640625 -6.15625 C 23.460938 -6.15625 25.675781 -7.046875 27.28125 -8.828125 C 28.882812 -10.617188 29.6875 -13.085938 29.6875 -16.234375 L 29.6875 -38 L 36.875 -38 L 36.875 -15.921875 C 36.875 -12.609375 36.179688 -9.695312 34.796875 -7.1875 C 33.410156 -4.6875 31.503906 -2.726562 29.078125 -1.3125 C 26.648438 0.09375 23.835938 0.796875 20.640625 0.796875 Z M 20.640625 0.796875 "/></g></g><g style="fill:#000000;fill-opacity:1;"><g transform="translate(302.367916, 217.124986)"><path style="stroke:none" d="M 32.15625 0 L 32.15625 -22.15625 C 32.15625 -25.039062 31.25 -27.414062 29.4375 -29.28125 C 27.625 -31.144531 25.28125 -32.078125 22.40625 -32.078125 C 20.476562 -32.078125 18.769531 -31.648438 17.28125 -30.796875 C 15.789062 -29.941406 14.617188 -28.769531 13.765625 -27.28125 C 12.910156 -25.789062 12.484375 -24.082031 12.484375 -22.15625 L 9.515625 -23.84375 C 9.515625 -26.71875 10.15625 -29.273438 11.4375 -31.515625 C 12.71875 -33.753906 14.503906 -35.523438 16.796875 -36.828125 C 19.085938 -38.140625 21.675781 -38.796875 24.5625 -38.796875 C 27.4375 -38.796875 29.976562 -38.078125 32.1875 -36.640625 C 34.40625 -35.203125 36.15625 -33.320312 37.4375 -31 C 38.71875 -28.675781 39.359375 -26.207031 39.359375 -23.59375 L 39.359375 0 Z M 5.28125 0 L 5.28125 -38 L 12.484375 -38 L 12.484375 0 Z M 5.28125 0 "/></g></g></g></svg>