<svg xmlns="http://www.w3.org/2000/svg" xmlns:xlink="http://www.w3.org/1999/xlink" width="500" zoomAndPan="magnify" viewBox="0 0 375 374.999991" height="500" preserveAspectRatio="xMidYMid meet" version="1.0"><defs><clipPath id="e02f00696c"><path d="M 37.5 125.277344 L 337.5 125.277344 L 337.5 249.777344 L 37.5 249.777344 Z M 37.5 125.277344 " clip-rule="nonzero"/></clipPath></defs><g clip-path="url(#e02f00696c)"><path fill="#2f36fa" d="M 332.410156 228.164062 L 198.242188 228.164062 C 195.4375 228.164062 193.160156 225.886719 193.160156 223.078125 C 193.160156 220.273438 195.4375 217.996094 198.242188 217.996094 L 296.210938 217.996094 C 299.019531 217.996094 301.292969 215.722656 301.292969 212.914062 C 301.292969 210.109375 299.019531 207.832031 296.210938 207.832031 L 285.625 207.832031 C 283.707031 194.410156 275.769531 182.289062 261.070312 179.460938 C 261.457031 177.035156 261.664062 174.550781 261.664062 172.015625 C 261.664062 146.238281 240.765625 125.34375 214.988281 125.34375 C 192.574219 125.34375 173.851562 141.144531 169.347656 162.21875 L 169.347656 162.214844 C 162.613281 158.449219 154.855469 156.304688 146.59375 156.304688 C 128.199219 156.304688 112.289062 166.949219 104.6875 182.414062 L 42.589844 182.414062 C 39.78125 182.414062 37.507812 184.691406 37.507812 187.496094 C 37.507812 190.304688 39.78125 192.582031 42.589844 192.582031 L 140.558594 192.582031 C 143.363281 192.582031 145.640625 194.855469 145.640625 197.664062 C 145.640625 200.472656 143.363281 202.746094 140.558594 202.746094 L 78.789062 202.746094 C 75.980469 202.746094 73.707031 205.023438 73.707031 207.832031 C 73.707031 210.636719 75.980469 212.914062 78.789062 212.914062 L 100.984375 212.914062 C 105.539062 233.917969 124.230469 249.652344 146.59375 249.652344 L 262.1875 249.652344 C 269.421875 248.34375 275.105469 244.117188 279.113281 238.328125 L 332.410156 238.328125 C 335.21875 238.328125 337.496094 236.054688 337.496094 233.246094 C 337.496094 230.4375 335.21875 228.164062 332.410156 228.164062 " fill-opacity="1" fill-rule="nonzero"/></g></svg>